<svg width="147" height="32" viewBox="0 0 147 32" fill="none" xmlns="http://www.w3.org/2000/svg">
<path d="M55.179 13.0994C55.0606 12.7159 54.8973 12.3726 54.6889 12.0696C54.4853 11.7618 54.2391 11.4991 53.9503 11.2812C53.6662 11.0634 53.3395 10.9001 52.9702 10.7912C52.6009 10.6776 52.1984 10.6207 51.7628 10.6207C50.9815 10.6207 50.2855 10.8172 49.6747 11.2102C49.0639 11.6032 48.5833 12.1809 48.233 12.9432C47.8873 13.7008 47.7145 14.6241 47.7145 15.7131C47.7145 16.8116 47.8873 17.742 48.233 18.5043C48.5786 19.2666 49.0592 19.8466 49.6747 20.2443C50.2902 20.6373 51.0052 20.8338 51.8196 20.8338C52.5582 20.8338 53.1974 20.6918 53.7372 20.4077C54.2817 20.1236 54.7008 19.7211 54.9943 19.2003C55.2879 18.6747 55.4347 18.0592 55.4347 17.3537L56.0312 17.446H52.0824V15.3864H57.9844V17.1335C57.9844 18.3788 57.7192 19.456 57.1889 20.3651C56.6586 21.2741 55.9295 21.9749 55.0014 22.4673C54.0734 22.955 53.008 23.1989 51.8054 23.1989C50.4654 23.1989 49.2888 22.8982 48.2756 22.2969C47.267 21.6908 46.4787 20.8314 45.9105 19.7188C45.3471 18.6013 45.0653 17.2756 45.0653 15.7415C45.0653 14.5672 45.2311 13.5185 45.5625 12.5952C45.8987 11.6719 46.3674 10.8883 46.9688 10.2443C47.5701 9.59564 48.2756 9.10322 49.0852 8.76705C49.8949 8.42614 50.7756 8.25568 51.7273 8.25568C52.5322 8.25568 53.2827 8.37405 53.9787 8.6108C54.6747 8.8428 55.2926 9.17424 55.8324 9.60511C56.3769 10.036 56.8243 10.5473 57.1747 11.1392C57.5251 11.7311 57.7547 12.3845 57.8636 13.0994H55.179ZM64.5772 23.2131C63.5119 23.2131 62.5886 22.9787 61.8073 22.5099C61.0261 22.0412 60.42 21.3854 59.9891 20.5426C59.563 19.6998 59.3499 18.715 59.3499 17.5881C59.3499 16.4612 59.563 15.474 59.9891 14.6264C60.42 13.7789 61.0261 13.1207 61.8073 12.652C62.5886 12.1832 63.5119 11.9489 64.5772 11.9489C65.6425 11.9489 66.5658 12.1832 67.3471 12.652C68.1283 13.1207 68.732 13.7789 69.1582 14.6264C69.589 15.474 69.8045 16.4612 69.8045 17.5881C69.8045 18.715 69.589 19.6998 69.1582 20.5426C68.732 21.3854 68.1283 22.0412 67.3471 22.5099C66.5658 22.9787 65.6425 23.2131 64.5772 23.2131ZM64.5914 21.1534C65.1691 21.1534 65.652 20.9948 66.0403 20.6776C66.4285 20.3556 66.7174 19.9247 66.9067 19.3849C67.1009 18.8452 67.1979 18.2438 67.1979 17.581C67.1979 16.9134 67.1009 16.3097 66.9067 15.7699C66.7174 15.2254 66.4285 14.7921 66.0403 14.4702C65.652 14.1482 65.1691 13.9872 64.5914 13.9872C63.9996 13.9872 63.5071 14.1482 63.1141 14.4702C62.7259 14.7921 62.4347 15.2254 62.2406 15.7699C62.0512 16.3097 61.9565 16.9134 61.9565 17.581C61.9565 18.2438 62.0512 18.8452 62.2406 19.3849C62.4347 19.9247 62.7259 20.3556 63.1141 20.6776C63.5071 20.9948 63.9996 21.1534 64.5914 21.1534ZM76.1452 23.2131C75.0798 23.2131 74.1565 22.9787 73.3753 22.5099C72.594 22.0412 71.988 21.3854 71.5571 20.5426C71.131 19.6998 70.9179 18.715 70.9179 17.5881C70.9179 16.4612 71.131 15.474 71.5571 14.6264C71.988 13.7789 72.594 13.1207 73.3753 12.652C74.1565 12.1832 75.0798 11.9489 76.1452 11.9489C77.2105 11.9489 78.1338 12.1832 78.9151 12.652C79.6963 13.1207 80.3 13.7789 80.7261 14.6264C81.157 15.474 81.3724 16.4612 81.3724 17.5881C81.3724 18.715 81.157 19.6998 80.7261 20.5426C80.3 21.3854 79.6963 22.0412 78.9151 22.5099C78.1338 22.9787 77.2105 23.2131 76.1452 23.2131ZM76.1594 21.1534C76.737 21.1534 77.22 20.9948 77.6082 20.6776C77.9965 20.3556 78.2853 19.9247 78.4747 19.3849C78.6688 18.8452 78.7659 18.2438 78.7659 17.581C78.7659 16.9134 78.6688 16.3097 78.4747 15.7699C78.2853 15.2254 77.9965 14.7921 77.6082 14.4702C77.22 14.1482 76.737 13.9872 76.1594 13.9872C75.5675 13.9872 75.0751 14.1482 74.6821 14.4702C74.2938 14.7921 74.0027 15.2254 73.8085 15.7699C73.6191 16.3097 73.5244 16.9134 73.5244 17.581C73.5244 18.2438 73.6191 18.8452 73.8085 19.3849C74.0027 19.9247 74.2938 20.3556 74.6821 20.6776C75.0751 20.9948 75.5675 21.1534 76.1594 21.1534ZM87.0029 23.1918C86.1459 23.1918 85.3789 22.9716 84.7018 22.5312C84.0247 22.0909 83.4897 21.4517 83.0967 20.6136C82.7037 19.7756 82.5072 18.7576 82.5072 17.5597C82.5072 16.3475 82.706 15.3248 83.1038 14.4915C83.5062 13.6534 84.0484 13.0213 84.7302 12.5952C85.412 12.1643 86.1719 11.9489 87.01 11.9489C87.6492 11.9489 88.1748 12.0578 88.5867 12.2756C88.9987 12.4886 89.3254 12.7467 89.5668 13.0497C89.8083 13.348 89.9953 13.6297 90.1279 13.8949H90.2344V8.45455H92.8126V23H90.2842V21.2812H90.1279C89.9953 21.5464 89.8036 21.8281 89.5526 22.1264C89.3017 22.42 88.9702 22.6709 88.5583 22.8793C88.1464 23.0876 87.6279 23.1918 87.0029 23.1918ZM87.7202 21.0824C88.2648 21.0824 88.7288 20.9356 89.1123 20.642C89.4958 20.3437 89.787 19.9295 89.9859 19.3991C90.1847 18.8688 90.2842 18.2509 90.2842 17.5455C90.2842 16.84 90.1847 16.2268 89.9859 15.706C89.7917 15.1851 89.5029 14.7803 89.1194 14.4915C88.7406 14.2027 88.2742 14.0582 87.7202 14.0582C87.1473 14.0582 86.6691 14.2074 86.2856 14.5057C85.9021 14.804 85.6132 15.2159 85.4191 15.7415C85.225 16.267 85.1279 16.8684 85.1279 17.5455C85.1279 18.2273 85.225 18.8357 85.4191 19.3707C85.618 19.901 85.9092 20.3201 86.2927 20.6278C86.6809 20.9309 87.1568 21.0824 87.7202 21.0824ZM107.019 8.45455V23H104.675L97.8216 13.0923H97.7009V23H95.0659V8.45455H97.4239L104.27 18.3693H104.398V8.45455H107.019ZM114.006 23.2131C112.912 23.2131 111.968 22.9858 111.172 22.5312C110.382 22.072 109.773 21.4233 109.347 20.5852C108.921 19.7424 108.708 18.7505 108.708 17.6094C108.708 16.4872 108.921 15.5024 109.347 14.6548C109.778 13.8026 110.379 13.1397 111.151 12.6662C111.923 12.188 112.829 11.9489 113.871 11.9489C114.543 11.9489 115.178 12.0578 115.775 12.2756C116.376 12.4886 116.906 12.8201 117.365 13.2699C117.829 13.7197 118.194 14.2926 118.459 14.9886C118.724 15.6799 118.857 16.5038 118.857 17.4602V18.2486H109.915V16.5156H116.392C116.388 16.0232 116.281 15.5852 116.073 15.2017C115.864 14.8134 115.573 14.508 115.199 14.2855C114.83 14.063 114.399 13.9517 113.907 13.9517C113.381 13.9517 112.919 14.0795 112.522 14.3352C112.124 14.5862 111.814 14.9176 111.591 15.3295C111.373 15.7367 111.262 16.1842 111.257 16.6719V18.1847C111.257 18.8191 111.373 19.3636 111.605 19.8182C111.837 20.268 112.162 20.6136 112.578 20.8551C112.995 21.0919 113.483 21.2102 114.042 21.2102C114.416 21.2102 114.754 21.1581 115.057 21.054C115.36 20.9451 115.623 20.7865 115.846 20.5781C116.068 20.3698 116.236 20.1117 116.35 19.804L118.75 20.0739C118.599 20.7083 118.31 21.2623 117.884 21.7358C117.462 22.2045 116.923 22.5691 116.265 22.8295C115.606 23.0852 114.854 23.2131 114.006 23.2131ZM122.625 23L119.542 12.0909H122.163L124.081 19.7614H124.18L126.14 12.0909H128.733L130.693 19.7188H130.8L132.689 12.0909H135.317L132.227 23H129.55L127.504 15.6278H127.355L125.309 23H122.625ZM145.134 14.9744L142.79 15.2301C142.724 14.9934 142.608 14.7708 142.442 14.5625C142.281 14.3542 142.063 14.1861 141.789 14.0582C141.514 13.9304 141.178 13.8665 140.78 13.8665C140.245 13.8665 139.795 13.9825 139.431 14.2145C139.071 14.4465 138.893 14.7472 138.898 15.1165C138.893 15.4337 139.009 15.6918 139.246 15.8906C139.488 16.0895 139.885 16.2528 140.439 16.3807L142.3 16.7784C143.332 17.0009 144.099 17.3537 144.601 17.8366C145.108 18.3196 145.363 18.9517 145.368 19.733C145.363 20.4195 145.162 21.0256 144.764 21.5511C144.371 22.072 143.825 22.4792 143.124 22.7727C142.423 23.0663 141.618 23.2131 140.709 23.2131C139.374 23.2131 138.299 22.9337 137.485 22.375C136.67 21.8116 136.185 21.0279 136.029 20.0241L138.536 19.7827C138.649 20.2751 138.891 20.6468 139.26 20.8977C139.63 21.1487 140.11 21.2741 140.702 21.2741C141.313 21.2741 141.803 21.1487 142.172 20.8977C142.546 20.6468 142.733 20.3366 142.733 19.9673C142.733 19.6548 142.613 19.3968 142.371 19.1932C142.134 18.9896 141.765 18.8333 141.263 18.7244L139.402 18.3338C138.356 18.116 137.582 17.7491 137.08 17.233C136.578 16.7121 136.329 16.054 136.334 15.2585C136.329 14.5862 136.512 14.0038 136.881 13.5114C137.255 13.0142 137.773 12.6307 138.436 12.3608C139.104 12.0862 139.873 11.9489 140.745 11.9489C142.023 11.9489 143.029 12.2211 143.763 12.7656C144.502 13.3101 144.959 14.0464 145.134 14.9744Z" fill="#ED631D"/>
<path fill-rule="evenodd" clip-rule="evenodd" d="M30 16C30 23.732 23.732 30 16 30C8.26801 30 2 23.732 2 16C2 8.26801 8.26801 2 16 2C23.732 2 30 8.26801 30 16ZM32 16C32 24.8366 24.8366 32 16 32C7.16344 32 0 24.8366 0 16C0 7.16344 7.16344 0 16 0C24.8366 0 32 7.16344 32 16ZM11 5.60039V16.0004H13V5.60039H11ZM19 16.0004V5.60039H21V16.0004H19ZM16 25.1996C21.081 25.1996 25.2 21.0806 25.2 15.9996H27.2C27.2 22.1852 22.1856 27.1996 16 27.1996C9.81441 27.1996 4.8 22.1852 4.8 15.9996H6.8C6.8 21.0806 10.919 25.1996 16 25.1996Z" fill="#0C0C0C"/>
</svg>
